PathFileType	4	(X/Y/Z)	C:/Users/beibeiliu/ov580/test_trc/User2\sequence.32_training_dense_left.trc
DataRate	CameraRate	NumFrames	NumMarkers	Units	OrigDataRate	OrigDataStartFrame	OrigNumFrames
120	120	11	19	mm	120	1	330
Frame#	Time	ThumbCMC			ThumbMCP			ThumbIP			ThumbTip			IndexMCP			IndexPIP			IndexTip			MiddleMCP			MiddlePIP			MiddleTip			RingMCP			RingPIP			RingTip			PinkyMCP			PinkyPIP			PinkyTip			BackHand1			BackHand2			BackHand3	
		X0	Y0	Z0	X1	Y1	Z1	X2	Y2	Z2	X3	Y3	Z3	X4	Y4	Z4	X5	Y5	Z5	X6	Y6	Z6	X7	Y7	Z7	X8	Y8	Z8	X9	Y9	Z9	X10	Y10	Z10	X11	Y11	Z11	X12	Y12	Z12	X13	Y13	Z13	X14	Y14	Z14	X15	Y15	Z15	X16	Y16	Z16	X17	Y17	Z17	X18	Y18	Z18	
0	0	-136.636	-67.6352	79.1104	-117.252	-76.7827	58.9489	-93.803	-83.2156	33.2881	-78.6298	-92.2874	12.6317	-155.514	-68.9651	-3.52805	-148.234	-72.8244	-29.6557	-143.777	-76.3776	-62.2936	-181.309	-67.8428	-11.4477	-183.264	-72.0473	-43.1403	-186.547	-79.2146	-74.55	-206.302	-74.1635	-5.47217	-212.037	-78.0903	-28.1405	-216.902	-86.0072	-56.6262	-229.622	-83.2371	16.0755	-236.931	-87.1731	-4.57102	-242.529	-85.324	-30.3206	-203.915	-58.7575	47.3098	-203.539	-46.8349	83.2688	-169.531	-48.8884	61.1897	
1	0.00833333	-138.868	-68.723	76.2412	-117.139	-76.0258	56.9879	-99.4795	-85.1609	31.7535	-80.3224	-93.9409	12.1657	-156.947	-69.0301	-5.80383	-150.68	-72.3765	-34.7225	-146.813	-77.1384	-64.0371	-181.642	-67.7157	-14.4845	-183.292	-71.4601	-41.3581	-187.636	-79.3266	-75.3435	-211.615	-73.8301	-3.34755	-212.254	-78.7144	-29.081	-218.12	-86.7667	-62.1523	-227.414	-83.8416	19.2765	-240.021	-86.6925	-9.61395	-246.345	-84.8259	-28.613	-206.922	-59.5977	50.8388	-203.519	-46.4258	79.7595	-169.605	-50.1864	58.9062	
2	0.0166667	-139.517	-69.0917	77.6872	-119.534	-76.668	59.125	-96.0535	-85.052	28.7695	-83.1958	-94.0609	15.6857	-152.247	-69.7323	-9.2407	-151.604	-73.2442	-32.8823	-143.798	-76.4464	-59.8298	-184.826	-67.5131	-11.5759	-184.311	-72.2662	-42.8663	-185.218	-78.7357	-73.9352	-207.026	-73.6296	-2.14998	-213.919	-79.9256	-33.626	-219.529	-87.5578	-61.1629	-229.904	-82.8787	18.1285	-240.551	-87.4767	-7.51341	-245.945	-87.7031	-29.7677	-208.316	-59.2125	49.8889	-203.397	-48.1572	79.457	-171.735	-50.0878	61.3379	
3	0.025	-136.536	-68.5039	72.6721	-119.86	-76.9957	55.8041	-97.7303	-85.1519	30.4441	-81.9302	-93.7132	17.3388	-155.124	-70.1172	-9.15674	-147.082	-72.6073	-36.0167	-149.124	-77.211	-59.5777	-182.561	-67.7029	-10.4741	-184.663	-72.4926	-45.1838	-187.957	-79.0127	-74.8717	-207.113	-73.6237	-5.08057	-214.702	-79.47	-32.4244	-216.724	-85.8635	-57.0033	-225.3	-83.6384	18.4504	-236.174	-85.8855	-8.31727	-246.138	-85.0731	-29.5749	-206.669	-60.7579	46.891	-207.267	-48.2705	78.2629	-170.423	-50.225	57.9269	
4	0.0333333	-140.563	-69.2338	76.3705	-118.208	-76.5418	54.0658	-94.852	-84.2299	32.0631	-78.6692	-92.8563	16.1089	-152.676	-68.9288	-5.638	-149.047	-72.0699	-31.3261	-144.324	-75.929	-58.9521	-180.334	-66.8308	-16.1942	-181.84	-73.1851	-47.2774	-185.388	-77.712	-73.3371	-211.587	-74.8416	-3.56859	-213.546	-79.0966	-33.9957	-219.089	-87.5412	-61.0487	-230.964	-83.7325	17.1118	-234.508	-86.4626	-7.27521	-245.981	-84.8542	-29.9605	-207.478	-59.1867	47.305	-201.64	-47.6074	76.4019	-171.098	-51.207	58.0508	
5	0.0416667	-139.958	-69.335	72.1407	-119.279	-76.2956	54.7416	-97.1047	-84.4746	28.0494	-77.9939	-92.6869	15.1789	-152.083	-69.189	-4.41501	-151.467	-73.2507	-35.769	-145.005	-76.9093	-59.2197	-184.543	-68.1929	-15.0593	-182.896	-72.3217	-44.6022	-188.732	-78.9685	-74.4711	-212.232	-74.9888	-3.50493	-216.752	-79.9785	-33.1474	-220.433	-87.2033	-57.7351	-228.598	-82.8045	17.2922	-234.507	-86.6151	-5.23201	-246.194	-87.3194	-29.3161	-203.938	-58.7834	50.5626	-203.817	-48.2517	78.7376	-167.765	-50.7517	59.0832	
6	0.05	-137.405	-68.395	72.4408	-116.48	-75.9536	54.2283	-97.9743	-86.1515	32.6389	-80.5863	-93.341	16.0093	-155.603	-69.5074	-9.82136	-148.327	-72.9107	-31.4816	-147.342	-77.1932	-59.9241	-185.262	-68.0178	-15.5806	-182.508	-72.0181	-42.3695	-186.445	-77.9796	-76.5403	-207.309	-74.1492	-1.91475	-215.294	-79.3965	-30.3861	-217.592	-86.5301	-62.1157	-230.929	-83.156	17.4825	-238.629	-86.4304	-9.98432	-246.558	-86.2901	-30.8594	-202.59	-60.5378	51.18	-204.989	-47.714	80.4592	-170.885	-48.9868	60.2146	
7	0.0583333	-137.567	-67.7633	76.9351	-117.192	-76.5773	57.2364	-93.9725	-84.1329	29.2043	-77.0744	-92.4919	16.8734	-154.558	-68.6585	-8.63818	-147.323	-73.0441	-36.4749	-148.316	-76.7075	-60.5031	-183.335	-68.0857	-15.5139	-183.57	-72.6174	-43.5346	-183.074	-79.407	-79.2471	-207.28	-73.8369	-3.51674	-217.721	-79.8463	-30.776	-219.695	-87.1313	-58.2763	-231.056	-82.0637	14.838	-236.735	-86.4562	-6.89193	-246.835	-86.5574	-33.8851	-207.899	-60.4017	51.2276	-204.824	-48.2875	78.3615	-167.9	-48.3518	58.6908	
8	0.0666667	-137.921	-69.4263	74.0672	-118.12	-77.6583	54.1907	-98.2951	-85.9677	30.4123	-78.9458	-93.5639	12.1978	-154.592	-68.9826	-6.46429	-148.683	-72.9694	-37.4453	-142.836	-77.9445	-64.6985	-182.645	-67.4246	-12.2087	-186.073	-72.7394	-47.2252	-185.611	-79.1801	-76.7808	-209.459	-73.9003	-5.04862	-216.942	-79.3762	-30.6315	-216.676	-87.5669	-61.4891	-230.328	-83.0918	19.2096	-236.542	-86.6209	-5.83554	-247.399	-86.0834	-31.2396	-205.235	-61.2806	49.2309	-205.227	-48.6634	81.2844	-169.562	-50.8413	60.1481	
9	0.075	-140.078	-69.5101	75.5468	-114.481	-76.8577	55.1393	-93.9058	-84.5831	32.7571	-81.6907	-95.6061	15.3849	-153.306	-69.6916	-7.77598	-151.557	-73.0063	-33.0327	-147.026	-76.9934	-62.2503	-181.064	-67.4255	-14.752	-181.704	-71.9414	-45.2107	-184.651	-79.1876	-75.3737	-206.342	-73.5919	-6.77691	-217.527	-78.8373	-29.133	-218.116	-87.8667	-59.5267	-225.597	-83.7122	18.6325	-238.423	-87.2259	-8.28255	-245.441	-87.2498	-30.901	-207.949	-60.8818	49.6232	-205.24	-48.656	76.7243	-168.626	-50.17	60.4327	
10	0.0833333	-138.161	-68.622	73.5627	-117.008	-76.9639	55.6812	-95.6905	-85.8675	30.6496	-78.6292	-94.3475	13.8243	-155.438	-70.5488	-8.83084	-148.472	-73.6068	-33.6834	-147.16	-78.1693	-64.3269	-182.227	-67.7553	-16.3042	-182.455	-72.7812	-44.032	-188.339	-79.6316	-75.1274	-212.168	-74.9899	-3.83885	-216.77	-79.1074	-29.592	-217.644	-87.1397	-61.1814	-225.843	-83.7647	18.0984	-237.59	-86.3685	-7.93639	-245.332	-87.2991	-30.3909	-207.625	-60.6479	49.8313	-204.493	-49.7081	75.8667	-170.723	-49.6608	59.1862	
